<svg version="1" xmlns="http://www.w3.org/2000/svg" width="156" height="185.333" viewBox="0 0 117 139"><path d="M74 13v13H57.5c-15.8 0-16.5.1-16.5 2s.8 2 20.8 2.2l20.7.3v73.6h-50V30.5l2.3-.3c1.4-.2 2.2-1 2.2-2.3 0-1.6-.7-1.9-4.5-1.9H28v26h-9.9c-9.2 0-10.2.2-13 2.6L2 57.2v32.4c0 20.9-.4 32.4-1 32.4-.5 0-1 2.6-1 5.7 0 4.8.4 6.1 2.7 8.5 2 2.1 3.6 2.8 6.5 2.8 3.1 0 3.8-.3 3.8-2 0-1.5-.7-2-2.8-2-3.5 0-6.2-2.7-6.2-6.3V126h20.3c19.1 0 20.5.1 22.2 2 1.6 1.8 3.1 2 12 2s10.4-.2 12-2c1.7-1.9 3.1-2 22.2-2H113v2.8c0 6.3 1.1 6.2-49.8 6.2-45.5 0-46.2 0-46.2 2s.7 2 47.3 2h47.3l2.7-2.8c2.3-2.4 2.7-3.7 2.7-8.5 0-3.1-.4-5.7-1-5.7s-1-9-1-25c0-24.3-.1-25-2-25s-2 .7-2 25v25H90.7c-19.1 0-20.5.1-22.2 2-1.5 1.7-3.1 2-10 2s-8.5-.3-10-2c-1.7-1.9-3.1-2-22.2-2H6V90.7C6 53.3 5 56 18.8 56c7.5 0 9.2.3 9.2 1.5S26.4 59 19.7 59c-5.1 0-8.8.5-9.5 1.2-.9.9-1.2 8.9-1.2 30V119h99V90.2c0-21.1-.3-29.1-1.2-30-.8-.8-4.6-1.2-10.5-1.2-7.6 0-9.3-.3-9.3-1.5S88.8 56 97.3 56c11.9 0 13.7 1 13.7 7.3 0 3 .4 3.7 2 3.7 1.7 0 2-.7 2-4.9 0-4.3-.4-5.3-3.1-7.5C109 52.2 108.2 52 98 52H87.1l-.3-12.8-.3-12.7-4.2-.3-4.3-.3v-13C78 .7 77.9 0 76 0s-2 .7-2 13zM28.2 85.7l.3 22.8h58l.3-22.8L87 63h17v52H13V63h15l.2 22.7z"/><path d="M74 42.5V50h-3.5c-4 0-4.5-1.4-1.4-3.8 2-1.7 2-1.7-1-4.6l-3.1-3-2.5 2.4c-2.9 2.7-3 3.3-1.1 5.3.8.8 1.6 2.7 1.8 4.3.3 2.9.3 2.9 7.3 2.9h7l.3-9.3c.3-8.7.2-9.2-1.8-9.2-1.8 0-2 .6-2 7.5zM40 54.7c-2.5 1-3 2.5-3 10V72h17v-7.4c0-6.6-.3-7.7-2.2-9-2.2-1.6-8.8-2-11.8-.9z"/></svg>