<svg version="1" xmlns="http://www.w3.org/2000/svg" width="145.333" height="185.333" viewBox="0 0 109 139"><path d="M7 4.6c0 3.8.3 4.5 1.8 4.2.9-.2 1.8-1.3 2-2.6l.3-2.2h57l-.3 14.2-.3 14.3-7.7.3-7.8.3v41l-9.7-.3-9.8-.3-.1-4.8c-.1-3.5-.7-5.4-2.4-7.2-2.1-2.3-3.1-2.5-10.7-2.5H11V36c0-22.3-.1-23-2-23s-2 .7-2 22.3v22.3L3.5 61 0 64.4V139h109.1l-.3-4.2c-.2-3.1-.8-4.4-2-4.6-1.3-.3-1.8.3-1.8 2.2v2.6H4v-34.3C4 59.9 2.9 63 16.6 63c5.7 0 9.4.4 10.2 1.2.7.7 1.2 3.9 1.2 7.5V78l38.3.2 38.2.3.3 23.7c.2 23 .3 23.8 2.2 23.8 1.9 0 2-.7 2-25.9 0-25.5 0-26-2.1-26.3-2-.3-2.1-.7-1.9-20.6l.1-20.2H72V0H7v4.6zM100.2 52c.2 8.3.1 15-.2 15-.3-.1-2.1-1.4-4-3-1.9-1.7-3.8-3-4.4-3-.5 0-3.1 1.4-5.8 3l-5 3.1-6.5-5.6-6.5-5.5-4.9 3.5C60.2 61.4 57.5 63 57 63c-.6 0-1-5-1-13V37h43.9l.3 15zM77.5 69.4l3 2.4 5.6-3.1 5.6-3.1 4.1 3.4c2.3 1.8 4.2 3.7 4.2 4.2 0 .4-9.7.8-21.5.8H57v-2.8c0-2.1 1.1-3.5 5.3-6.3l5.2-3.7 3.5 2.9c1.9 1.5 4.8 3.9 6.5 5.3z"/><path d="M15.7 21.7l.2 12.8 10.6.3 10.5.3V9H15.5l.2 12.7zm17.3-.2V30H20V13h13v8.5zM44.9 87.3c-11.9 6.3-15.5 21.5-7.6 31.9 12.7 16.6 38.7 8 38.7-12.7 0-16.1-17.1-26.6-31.1-19.2zm15.8 2.8c11.9 4.5 15 20.3 5.7 29.1-9.6 8.9-24.7 4.6-28.5-8.2-3.9-13 10-25.8 22.8-20.9z"/><path d="M48.7 96c-3.4 2.7-4.3 7-2.2 10.9 1.4 2.8 1.4 3.4 0 6.1-2.9 5.7-2.5 6 8 6 8.9 0 9.5-.1 9.5-2 0-1.2-.7-3.2-1.6-4.5-1.4-2.2-1.4-2.6 0-4.7 2.3-3.3 2-7.2-1-10.7-3.2-3.8-8.7-4.3-12.7-1.1z"/></svg>