<svg version="1" xmlns="http://www.w3.org/2000/svg" width="185.333" height="145.333" viewBox="0 0 139 109"><path d="M0 54.5V109h5.5c4.8 0 5.5-.2 5.5-2 0-1.6-.7-2-3.5-2-3.5 0-3.5 0-3.5-4.5V96h24v9h-6.5c-5.8 0-6.5.2-6.5 2 0 2 .7 2 62 2h62V0h-5.5c-4.8 0-5.5.2-5.5 2 0 1.6.7 2 3.5 2 3.5 0 3.5 0 3.5 4.5V13h-24V4h6.5c5.8 0 6.5-.2 6.5-2 0-2-.7-2-62-2H0v54.5zm28-46V13H4V4h24v4.5zm35.9-4.1c-.2.2-3.3 1.1-6.9 2-3.5.9-8.4 2.8-10.8 4.1-3 1.7-6 2.5-9.3 2.5H32V9.2c0-2.1.3-4.2.7-4.5.3-.4 7.6-.7 16.1-.7 8.6 0 15.3.2 15.1.4zm42.9 4.3l.3 4.3h-4.9c-3.4 0-6.3-.8-9.4-2.5-2.4-1.3-7.3-3.2-10.8-4.1-3.6-.9-6.7-1.8-6.9-2-.3-.3 6.7-.3 15.5-.2l15.9.3.3 4.2zm-26.9 1.4c10.9 2.5 23.4 11.4 28.8 20.6 7.9 13.5 8.4 31.4 1.2 45.4-2.6 5.2-11.4 14.5-16.6 17.6C79 102 60 102 45.7 93.7c-5.9-3.5-14-12.5-17.1-19.1C16.3 48.5 30.1 18.2 58 10.4c5.5-1.5 16-1.7 21.9-.3zM31.8 22.4l-4.3 4.7-11.5-.3-11.5-.3-.3-4.2-.3-4.2 15.8-.3c8.7-.2 15.9-.3 16.1-.2.1.1-1.7 2.2-4 4.8zM135 34.5V39h-18l-1.5-3.6c-.8-2-1.5-4-1.5-4.5s4.7-.9 10.5-.9H135v4.5zM24 74.7l1.9 4.3H4v-9.1l9.1.3 9 .3 1.9 4.2zm111 12.8V92h-15.5c-8.5 0-15.5-.3-15.5-.6 0-.4 1.5-2.4 3.3-4.4l3.2-3.8 12.3-.1L135 83v4.5zM47 99c3.3 1.7 8.3 3.6 11.2 4.3 5.1 1.2 4.8 1.2-9.2 1.5-7.9.1-15 0-15.7-.2-.8-.3-1.3-2.2-1.3-4.6v-4h4.5c3.1 0 6.5 1 10.5 3zm60 1c0 2.4-.5 4.3-1.3 4.6-.7.2-7.8.3-15.7.2-14.3-.3-14.4-.3-9-1.6 3-.7 8-2.5 11-4.1 3.6-1.9 7.1-2.9 10.3-3l4.7-.1v4zm28 .5v4.5h-24v-9h24v4.5z"/><path d="M57.8 16.9c-3.1 1-7.2 2.8-9.1 4-5.4 3.3-12.6 11.6-15.5 17.9-2.2 4.9-2.6 7.1-2.6 15.7-.1 9.2.1 10.5 3.1 16.7 9.7 20.6 33.5 28.9 53.8 18.9 23.9-11.8 29.2-44.5 10.3-63.4-10.2-10.2-26.6-14.2-40-9.8zm27.6 6c12.2 6 18.7 16.1 19.4 30.1.6 11.8-1.9 18.3-10.2 26.6-8.3 8.3-14.8 10.8-26.6 10.2-14.1-.7-24.1-7.2-30.2-19.6-3-6.1-3.3-7.5-3.3-15.7.1-7.7.5-9.8 2.9-14.7 4.6-9.6 13.9-17.3 24-19.9 1.7-.5 6.3-.7 10.3-.5 5.7.2 8.6 1 13.7 3.5z"/><path d="M64.4 31.5c-4 4-6.5 8.3-8.7 14.7-.6 1.6-.9 1.6-3.4.3-1.5-.8-3.9-1.5-5.2-1.5-2.4 0-2.4.1-1.8 7.7.9 13.2 5.2 21.9 13 26.4 5.8 3.3 17.2 3.4 23.4.1 7.8-4.1 12.3-12.9 12.3-24 0-5.4 0-5.4-2.7-4.9-1.6.3-3.7.8-4.9 1.2-1.9.6-2.2.2-2.8-4.2-1-8-6.2-15.6-13.3-19.7-.8-.4-3.1 1.1-5.9 3.9zm9.4 3.9c4.7 5.3 6.4 11.1 6 20-.1 4.2-.2 7.6-.2 7.6.1 0 2-1.8 4.2-4 4.6-4.7 6.2-5 6.2-1.4 0 12.3-10.7 21.7-22.8 20-9-1.2-14.3-6.7-16.8-17.3-2.6-11-1.6-12.5 4.9-7.2l3.7 3v-3.3c0-5.3 2.7-12.1 6.6-16.7 2-2.2 3.9-4.1 4.4-4.1.4 0 2.1 1.5 3.8 3.4z"/></svg>