<svg version="1" xmlns="http://www.w3.org/2000/svg" width="121.333" height="185.333" viewBox="0 0 91 139"><path d="M9 24.5V49l-4 5.2C-.6 61.6-.8 63 2.9 68.9c1.8 2.7 3.9 5.5 4.7 6.1C8.7 76 9 80.1 9 96.6c0 19.7.1 20.4 2 20.4s2-.7 2-18.6c0-12.1.3-18.3 1-17.9.6.4 1 7 1 16.6V113h61V97.1c0-9.6.4-16.2 1-16.6.7-.4 1 8.8 1 26.9V135H13v-6.5c0-5.8-.2-6.5-2-6.5s-2 .7-2 8.5v8.5h73v-31.4c0-26.1.2-31.6 1.4-32.6.8-.6 2.9-3.4 4.7-6.1 3.7-5.9 3.5-7.3-2.1-14.7L82 49V31c0-17.3-.1-18-2-18s-2 .7-2 16.6c0 10.7-.3 16.3-1 15.9-.6-.4-1-7-1-16.6V13H15v15.9c0 9.6-.4 16.2-1 16.6-.7.4-1-6.7-1-20.4V4h64.9l.3 2.2c.2 1.3 1.1 2.4 2.1 2.6 1.4.3 1.7-.4 1.7-4.2V0H9v24.5zM72 29c0 6.6-.1 12-.2 12-.2 0-2.8-.9-5.8-2.1-3-1.2-8.4-2.6-12-3.3l-6.4-1.2.3-5.2.2-5.2h-5.8c-4.7 0-6.1-.4-7.1-2-2.7-4.4-11.2-1.5-11.2 3.8 0 5.7 6.9 8.3 11.1 4.1 1.4-1.4 3-1.9 5.2-1.7 2.7.3 3.1.7 3.1 3.3 0 2.8-.2 2.9-6.4 4.1-3.6.7-9 2.1-12 3.3-3 1.2-5.6 2.1-5.7 2.1-.2 0-.3-5.4-.3-12V17h53v12zM56.1 41.7c17.8 9.1 17.8 33.5 0 42.5-17.8 9.1-38.2-6.7-34-26.2 2.3-10.6 12.6-19 23.4-19 3.6 0 6.7.8 10.6 2.7zm-33.4 5.2c-1.4 1.7-3.1 4.7-3.8 6.8-2.8 8.3-.7 21.5 4.1 25.8 3.5 3.1 2.2 3.6-2.2.9-5.6-3.4-10.3-7.9-13.9-13.1l-3-4.2 2.5-3.8c2.8-4.5 8.5-10 14-13.6 4.9-3.2 5.7-2.8 2.3 1.2zm54.5 4c2.8 2.5 6.1 6.2 7.4 8.3l2.5 3.9-3 4.2c-3.6 5.2-8.3 9.7-13.8 13.1-4.5 2.7-5.8 2.2-2.3-.9 2.9-2.6 5.5-10.3 5.5-16.5 0-6.2-2.6-13.9-5.5-16.5-1.1-1-2-2.2-2-2.7 0-1.4 5.7 2.2 11.2 7.1zM24.5 86.7c3.4 1.6 3.5 1.8 3.5 7.5v5.8h13.3c12 0 13.4.2 15 2 2.3 2.7 7.1 2.6 9.1-.2 2.3-3.3 1.9-6.4-1.1-8.7-3-2.4-5.8-2-8.5 1-1.5 1.8-2.8 1.9-12.5 1.7-10.7-.3-10.8-.3-11.1-2.8l-.3-2.5h12.8c11.5-.1 13.5-.3 19.7-2.8 3.7-1.5 7-2.7 7.2-2.7.2 0 .4 5.4.4 12v12H19V97c0-7.1.4-12 1-12 .5 0 2.5.8 4.5 1.7z"/><path d="M37.3 47.8c-4.5 2.6-8.4 4.9-8.7 5.2-.8.8 2.1 19.1 3.2 20.2.5.5 3.8 2.9 7.3 5.2l6.4 4.3 7.2-4.8c7.5-5.1 7.5-5.1 8.8-14.9.3-2.5.8-5.7 1.1-7.1.5-2.4-.1-3-5.3-5.9-3.2-1.8-7.1-4.1-8.8-5l-3-1.8-8.2 4.6zM42.4 116c-5.5 2.2-7 9.5-2.9 13.5 5.1 5.2 14.5 1.6 14.5-5.4 0-5.7-6.6-10.2-11.6-8.1z"/></svg>