<svg version="1" xmlns="http://www.w3.org/2000/svg" width="185.333" height="185.333" viewBox="0 0 139 139"><path d="M56 7.8c-13.3 7.7-13.5 7.9-13.8 11.5-1.2 13.9 11 35.3 24 42.1 4.4 2.4 6.2 1.7 14.1-5.4C90.2 47.1 97 33 97 21.1v-5.6l-8.3-4.6C84.2 8.3 78 4.8 75 3.1l-5.6-3L56 7.8zm25.5 3.6c10.6 6.1 11 6.5 11.3 10 .4 4.1-2 13.1-5 18.9-2.4 4.7-8.9 12-14.2 15.8l-3.8 2.8-4.3-2.9c-8.3-5.7-14.6-14.8-17.9-25.9-3.2-10.8-3.1-11 9.7-18.4C63.4 8.1 69 5.1 69.5 5.1c.6 0 6 2.8 12 6.3z"/><path d="M63 17.7c-4 1.4-5.7 8.3-2 8.3 1.3 0 2-.7 2-1.9 0-1 .7-2.2 1.6-2.5 2-.8 7.8-.8 9.8 0 2 .8 2.1 3 .1 3.8-2.2.8-1.8 2.9 1 5.6l2.5 2.4 3.1-3c2.9-2.8 3-2.9 1.1-4.4-1-.9-2.2-2.8-2.6-4.3-.4-1.7-1.7-3.2-3.2-3.7-2.7-1.1-10.9-1.2-13.4-.3zM57.6 30.9l-2.8 2.9 2.1 1.4c1.1.7 2.1 2 2.1 2.9 0 3.4 3.3 4.9 10.7 4.9 5.5 0 7.3-.4 8.6-1.8 2.4-2.6 2.2-6.2-.3-6.2-1.3 0-2 .7-2 2 0 1.8-.7 2-6.5 2-6.9 0-7.9-.8-4.8-4.2 1.5-1.7 1.5-2-.7-4.3-1.3-1.4-2.6-2.5-3-2.5-.3 0-1.9 1.3-3.4 2.9zM17.8 53c.3 8.5.2 9.2-2.2 12.1-3.1 3.7-3.3 5.8-.6 8.7 2.6 2.7 6.4 2.8 9 .2 2.6-2.6 2.6-6.2 0-8.5-1.7-1.5-2-3.1-2-9.7V48h10.3c5.7 0 10.6-.3 11-.6.3-.3.3-1.2 0-2-.4-1.1-3.2-1.4-13.2-1.4H17.5l.3 9zM95.7 45.4c-.3.8-.3 1.7 0 2 .4.3 5.3.6 11 .6H117v7.8c0 6.6-.3 8.2-2 9.7-4 3.6-1 10.5 4.5 10.5 2.7 0 6.5-3.5 6.5-6.1 0-1-1.2-3.1-2.6-4.8-2.4-2.9-2.5-3.6-2.2-12.1l.3-9h-12.6c-10 0-12.8.3-13.2 1.4zM0 111v28h20.5c19.8 0 20.5-.1 20.5-2s-.7-2-18.5-2H4v-13h50.5l-.3 6.5-.4 6.5h-3.9c-3.3 0-3.9.3-3.9 2 0 1.9.5 2.1 6.3 1.8l6.2-.3.3-27.8L59 83H38c-20.3 0-21 .1-21 2s.7 2 18.5 2H54v13H4V87h4.5c3.8 0 4.5-.3 4.5-2 0-1.8-.7-2-6.5-2H0v28zm54.2 0v6.5H4.5l-.3-6.8-.3-6.7 25.2.2 25.1.3v6.5zM74 104.6v21.5l4.2-.3c3.1-.2 4.4-.8 4.6-2.1.3-1.2-.3-1.7-2.2-1.7-2.1 0-2.6-.5-2.6-2.5V117h57v5h-24c-23.3 0-24 .1-24 2 0 1.8.7 2 5.5 2H98v4.5c0 4.1-.2 4.5-2.5 4.5-1.8 0-2.5.5-2.5 2 0 1.9.7 2 13 2s13-.1 13-2c0-1.3-.7-2-2-2-1.7 0-2-.7-2-4.5V126h24v-15c0-14.3-.1-15-2-15-1.8 0-2 .7-2 8.5v8.5H78V87h28.5c27.8 0 28.5 0 28.5 2 0 1.3.7 2 2 2 1.7 0 2-.7 2-4v-4H74v21.6z"/></svg>