<svg version="1" xmlns="http://www.w3.org/2000/svg" width="145.333" height="185.333" viewBox="0 0 109 139"><path d="M0 43.5v43.6l8.7-.3c7.3-.3 8.8-.6 9.1-2 .3-1.4-.7-1.8-6.5-2l-6.8-.3-.3-32.8L4 17h101v2.6c0 1.9.4 2.5 1.8 2.2 1.5-.3 1.7-1.8 2-11.1l.3-10.7H0v43.5zm105-35V13H4V4h101v4.5zM104.8 54.2l-.3 28.3-33.7.3C37.8 83 37 83.1 37 85c0 2 .7 2 36 2h36V56.5c0-29.8 0-30.5-2-30.5-1.9 0-2 .8-2.2 28.2z"/><path d="M39.7 28.7c-.2.5-1.7 4.6-3.2 9.2-3.1 9.6-3 14.7.7 21.3 2.5 4.5 16.3 15.2 18.2 14.1.6-.3 4-2.8 7.6-5.4 11.7-8.5 14.1-16.6 9.2-30.9l-2.9-8.5-14.6-.3c-8-.1-14.7.1-15 .5zm29 10.3c1.2 3.6 2.2 7.8 2.2 9.5.1 5.6-3.3 11.1-10 16-6.1 4.5-6.2 4.5-8.8 2.9-9.2-6-14-12.2-14.1-18.4 0-2.4 3.3-14.1 4.6-16.1.3-.5 5.8-.8 12.2-.7l11.7.3 2.2 6.5zM19.7 62.8c-2.3 2.5-2.1 6.8.3 9.2 1.6 1.6 2 3.3 2 7.9v6l5.5 3.3c5.1 3 5.5 3.5 5.5 7v3.8H9v39h8.5c7.8 0 8.5-.2 8.5-2s-.7-2-6.5-2H13v-31h32.5c31.8 0 32.5 0 32.5-2 0-1.9-.7-2-20.5-2H37v-4.9c0-5 0-5-5.5-8.3L26 83.5v-5c0-3.9.4-5.3 2-6.3 2.6-1.6 2.7-7.3.2-9.5-2.4-2.2-6.5-2.1-8.5.1z"/><path d="M83 102c0 1.8.7 2 6.5 2H96v31H63.5c-31.8 0-32.5 0-32.5 2s.7 2 34.5 2H100v-39h-8.5c-7.8 0-8.5.2-8.5 2z"/><path d="M30.7 126.6c-.3.3-.3 1.2 0 2 .8 2.1 46.8 2.1 47.6 0 .3-.8.3-1.7 0-2-.8-.8-46.8-.8-47.6 0z"/></svg>