<svg version="1" xmlns="http://www.w3.org/2000/svg" width="166.667" height="185.333" viewBox="0 0 125 139"><path d="M45.2 4.2c.2 3.1.8 4.4 2.1 4.6 1.3.3 1.7-.3 1.7-2.3 0-2.5.1-2.6 5.7-2.3 5.6.3 5.7.4 5.8 3.3 0 2.3.5 3 2 3s2-.7 2-3c.1-2.9.2-3 5.8-3.3l5.7-.3v31.2l-5.7-.3-5.7-.3.3-6.3c.2-6.1.2-6.2-2.4-6.2s-2.6.1-2.4 6.2l.3 6.3-5.7.3-5.7.3V24c0-10.3-.1-11-2-11s-2 .7-2 10.8c0 9.6-.2 11.1-2 12.7-1.6 1.4-2 3.3-2.2 10.9l-.3 9.1-18.9.3c-11.9.1-19.4.7-20.3 1.3-1.8 1.6-1.8 21.2 0 22.8.9.6 8.4 1.2 20.3 1.3l18.9.3.3 22.7c.1 14.1.6 22.8 1.2 22.8s1 1.7 1 3.8c0 6.7 1.3 7.2 19.7 7.2 18.1 0 19.3-.5 19.3-7.3 0-2 .5-3.7 1-3.7.6 0 1-2.8 1-6.5 0-5.8-.2-6.5-2-6.5-1.7 0-2 .7-2 4.5v4.5H45V39h35v36c0 35.2 0 36 2 36 1.8 0 2-.8 2.2-14.3l.3-14.2 18.9-.3c11.9-.1 19.4-.7 20.3-1.3 1.8-1.6 1.8-21.2 0-22.8-.9-.6-8.4-1.2-20.3-1.3l-18.9-.3-.3-9.1c-.2-7.6-.6-9.5-2.2-10.9-1.8-1.7-2-3.2-2-19.2V0H44.9l.3 4.2zM41 63.6c0 2.1-.4 2.5-2 2.1-2.2-.6-3.7.9-3.7 3.8s1.5 4.4 3.7 3.8c1.6-.4 2 0 2 2.1V78H4V61h37v2.6zm80 5.9V78H84v-2.6c0-2.1.4-2.5 2-2.1 2.2.6 3.7-.9 3.7-3.8s-1.5-4.4-3.7-3.8c-1.6.4-2 0-2-2.1V61h37v8.5zm-43.2 61.7l-.3 3.3h-30l-.3-3.3-.3-3.2h31.2l-.3 3.2z"/><path d="M54.7 50.8L52 53.6V111h21V53.4l-2.8-2.7c-2.3-2.2-3.7-2.7-7.8-2.7-4.2 0-5.5.5-7.7 2.8zm11.5 16.9l2.8 2.7V107H56V70.6l2.7-2.8c3.3-3.5 4-3.5 7.5-.1z"/></svg>