<svg version="1" xmlns="http://www.w3.org/2000/svg" width="185.333" height="145.333" viewBox="0 0 139 109"><path d="M53.5 9.3c-13.9 8-16 9.6-16.3 12l-.3 2.7H0v85h21.5c20.8 0 21.5-.1 21.5-2s-.7-2-19.5-2H4V68h55.9l5 3.1 5 3.2 4.9-3.2 4.9-3.1H135v37H91.5c-42.8 0-43.5 0-43.5 2s.7 2 45.5 2H139V73c0-35.3 0-36-2-36-1.7 0-2 .7-2 4.5V46h-19.1c-17.8 0-19.1-.1-18.4-1.8.4-.9 1.5-4.9 2.5-8.7l1.8-7 16.6-.3L135 28v2.5c0 1.8.5 2.5 2 2.5 1.7 0 2-.7 2-4.5V24h-37v-2.8c0-2.9.8-2.4-28.5-18.9l-4-2.2-16 9.2zM84 12.9l13.5 7.7-.2 5.8C96.9 37.8 91 50.7 82 59.8c-3.1 3.1-7.3 6.6-9.2 7.6l-3.5 1.9-4.5-3.1c-11.3-7.8-20.7-23.1-22.9-37-.6-4.1-.8-7.7-.4-8 1.3-1.3 27-16 28-16 .6-.1 7.1 3.4 14.5 7.7zM39 35c.9 3.6 2.2 7.5 2.9 8.7l1.2 2.3H4V28l16.7.2 16.7.3L39 35zm10.1 21.2c2.4 3.5 4.5 6.5 4.7 6.8.1.3-11 .4-24.8.2l-25-.3V50h40.6l4.5 6.2zm85.9.3v6.4l-25 .3c-13.8.2-25 0-25-.3s.9-1.4 2-2.4 3.3-3.8 4.8-6.2l2.7-4.3H135v6.5z"/><path d="M58 16.1c-13.8 8-13.2 7.4-12.5 12.8 1.9 13.6 7.9 24.5 17.8 31.7l5.9 4.4 4-2.2c8.8-5 17.3-17.3 19.7-28.6C95.1 23.6 95.3 23.9 83 17c-6.1-3.4-11.8-6.4-12.8-6.6-.9-.3-6.4 2.3-12.2 5.7zm28.3 7.6c2 1.3 3.7 2.7 3.7 3.3 0 3.5-2.7 12.4-5.3 17.3C82 49.4 72.1 60 70.1 60c-1.8 0-9.3-6.3-12.2-10.3-4.3-5.8-6.6-11.2-7.7-18l-.9-5.8L59.4 20l10.1-5.9 6.5 3.6c3.6 2 8.2 4.7 10.3 6zM102.5 74.8c-5.4 1.8-8.5 6-8.5 11.7 0 4.6 1.9 7.9 5.8 9.9 3.6 1.8 18.8 1.8 22.4 0 6-3.1 7.5-12.9 2.7-18-2.8-3-8-4.5-11.7-3.5-1.5.5-3.6.5-4.7 0-2.4-.9-3.3-.9-6-.1zM11 87.5V94h32V81H11v6.5z"/></svg>