<svg version="1" xmlns="http://www.w3.org/2000/svg" width="150.667" height="185.333" viewBox="0 0 113 139"><path d="M0 8.5C0 16.3.2 17 2 17s2-.7 2-6.5V4l43.6.2 43.5.3.2 11.8.2 11.9-3-.7c-8.6-1.8-13.4-1.7-20.5.4-6.2 1.9-8.1 3.1-13.5 8.4C46.8 43.9 44 50.5 44 61c0 10 2.9 17.1 9.9 24.1C59.6 90.7 68 95 73.5 95c2.4 0 2.5.2 2.5 7 0 6.1-.2 7-1.8 7-3.6 0-4.2 2-4.2 14.2V135H4V78.5C4 22.7 4 22 2 22s-2 .7-2 58.5V139h96v-30h-5.1l.2 12.7c.1 12.3.1 12.8-2 13.1-2 .3-2.1 0-2.1-11.1 0-9.8-.3-11.6-1.8-13-1-1-2.6-1.7-3.6-1.7-1.5 0-1.7-.9-1.4-6.7l.3-6.7 5.3-1.1 5.2-1.2v5.3c0 5.1.1 5.4 2.6 5.4s2.5-.1 2.3-6.5c-.2-6.6-.2-6.6 3.5-9.2 5.3-3.8 11.2-13.2 12.6-20 2.6-12.2-1.9-25.5-11.1-33.6l-5.1-4.5.1-15.1.2-15.1H0v8.5zm91.7 25c10.6 5.3 16.8 15.3 16.8 27.5-.1 8.2-2 13.5-7.4 20-7.1 8.6-21.6 12.3-33.2 8.5-7.2-2.4-15.9-11-18.2-17.9-2-5.9-2.1-15.6-.3-20.9 6.2-17.2 25.9-25.2 42.3-17.2z"/><path d="M67.7 41.7c-1.4 1.3-.6 3.2 1.5 3.5 2.6.4 3.7 2.8 1.3 2.8-.9 0-1.9.9-2.2 2-.5 2-3.3 2.9-3.3 1 0-.6-.9-1-2-1-1.5 0-2 .7-2 2.9 0 2.6.4 3 3.3 3.3 1.7.2 3.2.7 3.2 1.3 0 .5-1.5 1.1-3.2 1.3-2.5.2-3.3.8-3.3 2.3 0 1.5.7 1.9 3.5 1.9 1.9 0 3.5.4 3.5 1 0 .5-1.6 1-3.5 1-2.8 0-3.5.4-3.5 1.9s.8 2.1 3.3 2.3c1.7.2 3.2.7 3.2 1.3 0 .5-1.5 1.1-3.2 1.3-2.9.3-3.3.7-3.3 3.3 0 2.2.5 2.9 2 2.9 1.1 0 2-.5 2-1 0-.6.7-1 1.5-1s1.5.9 1.5 2c0 1.9.7 2 10.1 2 9.2 0 10.1-.2 10.6-2 .5-2 2.3-2.8 2.3-1 0 .5 1.1 1 2.5 1 2.1 0 2.5-.5 2.5-3 0-2.8-.3-3-3.5-3-2.4 0-3.5-.5-3.5-1.5 0-1.1 1.1-1.5 3.6-1.5 2.8 0 3.5-.3 3.2-1.8-.2-1.1-1.4-1.8-3.6-2-4.3-.4-4.1-2.2.3-2.2 2.8 0 3.5-.4 3.5-2s-.7-2-3.5-2c-2.4 0-3.5-.5-3.5-1.5s1.1-1.5 3.5-1.5c3.2 0 3.5-.2 3.5-3 0-2.5-.4-3-2.5-3-1.4 0-2.5.4-2.5 1 0 .5-.4 1-1 1-.5 0-1-.7-1-1.6 0-.9-.9-1.8-2-2.1-1.1-.3-2-1.2-2-1.9 0-.8.9-1.4 2-1.4 1.3 0 2-.7 2-2 0-1.7-.7-2-3.9-2-3.7 0-4 .2-4.3 3.2-.2 2.5-.8 3.4-2.5 3.6-2 .3-2.3-.1-2.3-3.2 0-3.5-.1-3.6-3.8-3.6-2.1 0-4.2.3-4.5.7zM76 57.5c0 4.8.2 5.5 2 5.5s2-.7 2-5.5c0-5.2.1-5.5 2.5-5.5H85v24h-2.5c-1.8 0-2.5-.5-2.5-2 0-1.3-.7-2-2-2s-2 .7-2 2-.7 2-2 2c-1.9 0-2-.7-2-12s.1-12 2-12c1.8 0 2 .7 2 5.5zM33 15c0 1.9.7 2 26 2s26-.1 26-2-.7-2-26-2-26 .1-26 2zM13 28c0 1.9.7 2 23 2s23-.1 23-2-.7-2-23-2-23 .1-23 2zM13 93c0 1.8.9 1.9 20.5 2.2l20.5.3V91H33.5c-19.7 0-20.5.1-20.5 2z"/></svg>