<svg version="1" xmlns="http://www.w3.org/2000/svg" width="186.667" height="185.333" viewBox="0 0 140 139"><path d="M3.7 1.8C2.3 3.3 2 6 2 16.8 2 24.9 1.6 30 1 30c-1.8 0-1.1 7.6.8 9.3C4.5 41.8 9 41.5 9 39c0-1.3-.7-2-1.9-2-1.1 0-2.3-.5-2.6-1-.4-.7 8.2-1 25-1s25.4.3 25 1c-.4.6-8.5 1-21.1 1-19.7 0-20.4.1-20.4 2s.7 2 21.4 2C52 41 56 40.7 57 39.5c1.7-2 1.9-8.6.3-9.2-.9-.4-1.3-2.8-1.3-7.9 0-6.7-.2-7.4-2-7.4s-2 .7-2 7.5V30H5.9l.3-12.8.3-12.7 22.8-.3L52 4v3.5c0 2.8.4 3.5 2 3.5 1.7 0 2-.7 2-3.8C56 .1 55.5 0 28.8 0 7.3 0 5.2.2 3.7 1.8zM84.7 1.8C83.3 3.3 83 6 83 16.7c0 9.7-.3 13.2-1.3 13.6-1.6.6-1.4 7.2.3 9.2.7.8 2.5 1.5 4.1 1.5 2.2 0 2.9-.5 2.9-2 0-1.3-.7-2-1.9-2-1.1 0-2.3-.5-2.6-1-.4-.7 8.2-1 25-1s25.4.3 25 1c-.4.6-8.5 1-21.1 1-19.7 0-20.4.1-20.4 2s.7 2 21.3 2c19.5 0 21.5-.2 23-1.8 1.8-2 2.3-9.2.7-9.2-.6 0-1-3.2-1-7.5 0-6.8-.2-7.5-2-7.5s-2 .7-2 7.5V30H87V4l22.8.2 22.7.3.3 3.2c.2 2.5.8 3.3 2.3 3.3 1.5 0 1.9-.7 1.9-3.8 0-7.1-.5-7.2-27.2-7.2-21.5 0-23.6.2-25.1 1.8zM59.5 47.8l-9.7 5.5.4 5.8c.4 5.6.3 5.8-2.1 6.1-1.4.2-2.5 1-2.7 2-.2 1.4.5 1.8 3.2 1.8 3 0 3.7.6 6.9 5.5 1.9 3 5.2 6.7 7.4 8.3 3.7 2.5 3.9 3 4.3 8.5.1 3.2.1 6.1-.1 6.3-.2.2-5.5.4-11.6.4-14.9 0-14.5-.4-14.5 16.8 0 8.1-.4 13.2-1 13.2-1.8 0-1.1 7.6.8 9.3 2.7 2.4 7.2 2.2 7.2-.2 0-1.2-.8-2.1-2-2.3-1.2-.2-2.1-.8-2-1.3 0-.6 9.2-1 25.5-1s25.5.4 25.5 1-8 1.1-21.5 1.3c-20.7.2-21.5.3-21.5 2.2 0 1.9.7 2 22.3 2 20.4 0 22.5-.2 24-1.8 1.8-2 2.3-9.2.7-9.2-.6 0-1-3.2-1-7.5 0-6.8-.2-7.5-2-7.5s-2 .7-2 7.5v7.5H44.9l.3-12.8.3-12.7h48l.3 3.3c.5 4.7 3.6 4 4-.9.5-5.8-1.5-6.8-14.7-7.1l-11.4-.3v-5.6c0-5.4.2-5.7 5.3-10.5 2.8-2.7 6.1-6.5 7.1-8.6 1.7-3.4 2.3-3.8 5.8-3.8 3.2 0 3.9-.3 3.7-1.8-.2-1-1.3-1.8-3-2-2.6-.3-2.7-.4-2.1-6l.6-5.7-9.9-5.6-9.9-5.6-9.8 5.5zm18.6 4.3l7 4-.7 3.7c-1.1 6.3-5 13.8-9.4 18.1-2.3 2.3-4.8 4.1-5.4 4.1-2.3 0-9.2-6.8-11.9-11.9-1.5-2.7-3-7.2-3.3-9.8l-.5-4.8 7.3-4.1c4-2.3 7.9-4 8.6-3.8.7.2 4.5 2.2 8.3 4.5z"/><path d="M67.3 54.8c-1.3.2-3.2 1.5-4.3 2.9-4.5 5.7-.7 13.5 6.5 13.5 3 0 4.5-.6 6.2-2.7 5.5-6.4.2-15-8.4-13.7zM21.7 47.8c-2.3 2.5-2.1 6.9.3 8.9 1.5 1.3 2 3 2 7V69h4.6c3.8 0 4.5-.3 4.2-1.8-.2-.9-1.3-1.8-2.6-2-1.7-.3-2.2-1-2.2-3.5 0-2 .8-3.9 2-5 2.5-2.1 2.6-6.8.2-9s-6.5-2.1-8.5.1zM108.7 47.8c-2.3 2.5-2.1 6.9.3 8.9 1.2 1.1 2 3 2 5 0 2.5-.5 3.2-2.2 3.5-1.3.2-2.4 1.1-2.6 2-.3 1.5.4 1.8 4.2 1.8h4.6v-5.3c0-4 .5-5.7 2-7 2.5-2.1 2.6-6.8.2-9s-6.5-2.1-8.5.1z"/></svg>