<svg version="1" xmlns="http://www.w3.org/2000/svg" width="150.667" height="185.333" viewBox="0 0 113 139"><path d="M0 6.5C0 12.3.2 13 2 13c1.7 0 2-.7 2-4.5V4h66l-.2 32.7c-.2 21.3-.7 32.7-1.3 32.6-.6-.2-1.1-10.7-1.3-28.3L67 13H7v100h60V96.5c0-14 .2-16.5 1.5-16.5s1.5 3.2 1.5 23c0 22.3.1 23 2 23s2-.7 2-23.1v-23l3.3.3c2.7.3 3.2.7 3.5 3.3.6 4.8 2.4 5.4 16.3 5.5 16.2 0 15.9.2 15.9-14.2 0-14.1.3-13.8-16.7-13.8-14.1 0-14.9.3-15.5 5.5-.3 2.6-.8 3-3.5 3.3l-3.3.3V0H0v6.5zm63 37.1v26.5l-3.2-.3c-3.3-.3-3.3-.3-3.6-6.3-.3-6-2.1-9.5-4.9-9.5-1 0-1.3-1.9-1.3-7.8s-.5-8.5-2-10.9c-3.5-5.8-15-6.8-20.8-1.8-2.5 2.2-2.7 3-3 11.4-.3 5.7-.8 9.1-1.5 9.1-.6 0-2.1 1-3.4 2.2-2.2 2.1-2.3 2.7-2.3 18.6 0 14 .3 16.8 1.7 18.4C20.1 94.8 22.1 95 37 95c12.4 0 17-.3 17.8-1.3.6-.7 1.2-4 1.4-7.2.3-6 .3-6 3.6-6.3l3.2-.3V109H11V17h52v26.6zm-18.6-6.4c1.1 1.5 1.6 4.6 1.6 9.5V54H28v-7.7c0-9.9 1.1-11.3 9.1-11.3 4.8 0 6 .4 7.3 2.2zm7.4 27l.3 5.8H35v7.5c0 6.8.2 7.5 2 7.5 1.5 0 2-.7 2-2.6 0-2.1.4-2.5 2.3-2.2 1.7.2 2.3 1.1 2.5 3.5.2 2.5.8 3.3 2.3 3.3 1.5 0 1.9-.7 1.9-3.5s.4-3.5 2-3.5c1.8 0 2 .7 2 5.5v5.6l-15.1-.3-15-.3V75.2c0-8.3.3-15.7.6-16.2.4-.7 5.9-1 14.8-.8l14.2.3.3 5.7zM108.5 75v9.5l-11.7.3-11.8.3V64.9l11.8.3 11.7.3V75z"/><path d="M0 78v61h74.1l-.3-4.2c-.2-3.1-.8-4.4-2-4.6-1.3-.3-1.8.3-1.8 2.2v2.6H4V76c0-58.3 0-59-2-59s-2 .7-2 61z"/><path d="M21.2 119.2c-1.6 1.6-1.6 8 0 9.6 1.7 1.7 29.9 1.7 31.6 0 1.6-1.6 1.6-8 0-9.6-1.7-1.7-29.9-1.7-31.6 0z"/></svg>